<svg xmlns="http://www.w3.org/2000/svg" width="230.13" height="47.49" viewBox="0 0 230.13 47.49">
  <title>Asset 1</title>
  <g id="Layer_2" data-name="Layer 2">
    <g id="Layer_1-2" data-name="Layer 1">
      <path d="M201.3,0,172.74,3.14c.14.29.29.61.44,1l27.86-3,4.67,13.68.08-.17.26-.58Z" style="fill: #fff"/>
      <path d="M200.66,4.61l4.2,12.1.33-.79L200.92,3.55,174.19,6.46c.13.31.26.63.38,1Z" style="fill: #fff"/>
      <path d="M204,18.78c.11-.27.22-.55.32-.82L200.54,7.11,175.43,9.8c.11.32.21.65.31,1l24.54-2.61Z" style="fill: #fff"/>
      <path d="M203.25,21c.1-.29.19-.58.3-.88l-3.4-9.45-23.69,2.5c.09.34.19.66.28,1l23.15-2.43Z" style="fill: #fff"/>
      <path d="M202.53,23.43c.09-.3.18-.62.27-.94l-3-8.27-22.33,2.32c.09.34.18.66.27,1l21.8-2.25Z" style="fill: #fff"/>
      <path d="M201.83,25.93c.09-.32.17-.64.26-1l-2.7-7.19-21.07,2.15c.08.32.15.65.22,1l20.59-2.08Z" style="fill: #fff"/>
      <path d="M201.17,28.58c.08-.36.16-.7.24-1L199,21.33l-20,2q.09.48.18,1l19.56-1.94Z" style="fill: #fff"/>
      <path d="M200.6,31.45c.07-.39.14-.75.21-1.11l-2.18-5.45-19,1.86c.06.33.11.66.17,1l18.59-1.8Z" style="fill: #fff"/>
      <path d="M200.1,34.52q.09-.62.18-1.17l-2-4.91-18.07,1.72c.06.34.12.67.17,1L198,29.49Z" style="fill: #fff"/>
      <path d="M199.82,36.51l-2-4.51-17.12,1.58c.06.4.12.74.15,1l16.72-1.52,2.06,4.67c.05-.42.1-.82.15-1.21" style="fill: #fff"/>
      <path d="M199.41,39.75l-1.93-4.2L181.13,37c0,.32,0,.65.06,1l16-1.41,2,4.38c.05-.4.1-.8.15-1.23" style="fill: #fff"/>
      <path d="M199,43l-1.91-3.9-15.76,1.34c0,.34,0,.68,0,1l15.45-1.3,2,4.07c0-.38.1-.79.15-1.22" style="fill: #fff"/>
      <path d="M198.63,46.25l-1.91-3.59-15.21,1.23c0,.39,0,.74,0,1l14.91-1.19,2,3.78c0-.36.09-.77.14-1.24" style="fill: #fff"/>
      <path d="M226.84,14.37,207.1,16.54l.3.66,19.26-2.1,3.23,9.46.06-.12.18-.41Z" style="fill: #fff"/>
      <path d="M226.4,17.56l2.9,8.37c.08-.19.16-.37.23-.55l-2.95-8.55-18.48,2c.09.21.17.44.26.66Z" style="fill: #fff"/>
      <path d="M228.73,27.36c.08-.19.15-.38.22-.57l-2.64-7.5L209,21.15l.21.67,17-1.8Z" style="fill: #fff"/>
      <path d="M228.19,28.89l.21-.6-2.35-6.54-16.39,1.73.2.67,16-1.68Z" style="fill: #fff"/>
      <path d="M227.69,30.57c.07-.21.13-.43.19-.65l-2.09-5.72-15.45,1.61c.07.23.13.46.19.68l15.08-1.56Z" style="fill: #fff"/>
      <path d="M227.21,32.3l.18-.66-1.87-5L211,28.15c.06.23.11.45.16.68l14.23-1.44Z" style="fill: #fff"/>
      <path d="M226.76,34.13c.05-.24.11-.48.16-.71l-1.66-4.3L211.43,30.5l.12.69,13.53-1.34Z" style="fill: #fff"/>
      <path d="M226.36,36.12c0-.27.09-.52.14-.77L225,31.58l-13.14,1.28c0,.23.07.46.11.69l12.86-1.24Z" style="fill: #fff"/>
      <path d="M226,38.24q.06-.42.12-.81L224.73,34l-12.49,1.19.12.68,12.19-1.15Z" style="fill: #fff"/>
      <path d="M225.82,39.62l-1.35-3.12-11.84,1.09c0,.28.08.51.1.69l11.56-1.06,1.42,3.23c0-.29.08-.56.11-.83" style="fill: #fff"/>
      <path d="M225.54,41.86,224.2,39l-11.31,1c0,.22,0,.45.05.7l11.08-1,1.41,3c0-.27.07-.55.11-.84" style="fill: #fff"/>
      <path d="M225.26,44.11l-1.32-2.7-10.9.93c0,.24,0,.47,0,.7l10.68-.9,1.4,2.81c0-.26.06-.54.1-.84" style="fill: #fff"/>
      <path d="M225,46.35l-1.32-2.48-10.52.85c0,.27,0,.51,0,.7l10.32-.82,1.4,2.61c0-.25.06-.54.1-.86" style="fill: #fff"/>
      <g>
        <path d="M6.82,37l2,4.71H4.66Zm-.37-3.81L0,47H2.25l1.54-3.36H9.72L11.17,47h2.29L7.24,33.16Z" style="fill: #fff"/>
        <polygon points="18.86 34.21 18.86 47 25.02 47 25.02 45.04 20.95 45.04 20.95 34.21 18.86 34.21" style="fill: #fff"/>
        <polygon points="42.35 34.21 42.35 44.87 36.3 44.87 36.3 40.05 34.21 40.05 34.21 46.97 44.45 46.97 44.45 34.21 42.35 34.21" style="fill: #fff"/>
        <rect x="51.21" y="34.21" width="2.09" height="12.8" style="fill: #fff"/>
        <polygon points="71.43 34.21 67.48 42.88 63.67 34.21 62.31 34.21 59.82 47 61.98 47 63.47 38.64 67.17 47.02 67.73 47.02 71.55 38.65 72.88 47 75.03 47 72.78 34.21 71.43 34.21" style="fill: #fff"/>
        <rect x="81.63" y="34.21" width="2.09" height="12.8" style="fill: #fff"/>
        <polygon points="111.24 34.21 107.29 42.88 103.48 34.21 102.12 34.21 99.63 47 101.79 47 103.28 38.64 106.98 47.02 107.54 47.02 111.36 38.65 112.69 47 114.83 47 112.59 34.21 111.24 34.21" style="fill: #fff"/>
        <path d="M126.6,37l2.06,4.71h-4.21Zm-.87-2.76L119.79,47H122l1.54-3.36h5.93L131,47h2.29l-5.73-12.79Z" style="fill: #fff"/>
        <polygon points="138.65 34.21 138.65 47 144.81 47 144.81 45.04 140.74 45.04 140.74 34.21 138.65 34.21" style="fill: #fff"/>
        <polygon points="150.46 34.21 150.46 47 156.62 47 156.62 45.04 152.55 45.04 152.55 34.21 150.46 34.21" style="fill: #fff"/>
        <rect x="70.6" y="26.96" width="2.09" height="2.04" style="fill: #fff"/>
        <rect x="73.67" y="26.96" width="2.09" height="2.04" style="fill: #fff"/>
        <rect x="122.68" y="26.96" width="2.09" height="2.04" style="fill: #fff"/>
        <rect x="125.75" y="26.96" width="2.09" height="2.04" style="fill: #fff"/>
        <rect x="145.35" y="26.93" width="2.1" height="2.04" style="fill: #fff"/>
        <path d="M61,24.15H58.69V21.37H61ZM15.75,21.37h1.94v2.75H15.75ZM56.6,24.19H19.78V19.37H13.66v6.82h4v3.59h2.09V26.19H63.07V19.37H56.6Z" style="fill: #fff"/>
        <polygon points="8.32 13.43 8.32 24.1 2.26 24.1 2.26 19.28 0.16 19.28 0.16 26.19 10.41 26.19 10.41 13.43 8.32 13.43" style="fill: #fff"/>
        <path d="M108.56,24.19h-2.3V21.37h2.3ZM151,13.43V24.19l-3.64,0v-4.8h-8.41v3.22h2V21.37h4.39v2.82H126.19v-4.8H124.1V24.2H110.65V19.37h-6.48v4.82h-21V19.34H76.08v4.8H70.55V21.46h2.37V19.37H68.46v6.87h9.72V21.43h3v4.79l71.87,0V13.43Z" style="fill: #fff"/>
        <rect x="154.37" y="13.43" width="2.09" height="12.76" style="fill: #fff"/>
      </g>
    </g>
  </g>
</svg>
